<svg height="2304pt" preserveAspectRatio="xMidYMid meet" viewBox="0 0 2304 2304" width="2304pt" xmlns="http://www.w3.org/2000/svg"><path d="m0 11520v-11520h11520 11520v11520 11520h-11520-11520zm3535 10648c-8-24-237-774-510-1668s-498-1627-500-1629-391 247-864 554l-861 557v1114 1114h1374 1375zm2074-315c-65-197-397-1199-738-2226-340-1027-621-1869-624-1870-5-2-783 498-804 517-10 8 118 436 562 1891 317 1034 587 1917 600 1963l26 82h549 548zm3532 335c-54-137-2424-6024-2426-6027-3-2-354 223-782 499-428 277-779 504-780 504-1 1 214 654 478 1451 264 798 640 1933 835 2523l355 1072h1164 1165zm5139 15c0-6-4068-8295-4075-8301-2-2-2576 1658-2593 1673-2 1 597 1495 1330 3319l1333 3316h2003c1101 0 2002-3 2002-7zm7948-1178-3-1185-3160-4810c-1738-2645-3165-4808-3172-4807-6 1-1089 699-2406 1551l-2395 1550 47 95c26 53 1008 2052 2182 4444l2134 4347h3387 3388zm-20026-3213c-5-21-1368-4482-1387-4537-11-34-14 359-14 2712l-1 2752 703-455c532-345 701-459 699-472zm20026-8736-3-2954-2720 1759c-1592 1030-2719 1766-2719 1774 1 8 1225 1875 2720 4150l2719 4136 3-2956c1-1625 1-4284 0-5909zm-18683 7886c225-146 359-239 359-248-1-8-699-2119-1550-4691l-1549-4677-3 1167-2 1167 1126 3683c619 2025 1139 3726 1156 3780l30 98 36-23c21-12 199-128 397-256zm2031-1314 742-479-297-737c-2964-7373-4087-10162-4092-10162-8 0-49 76-49 92 0 9-12 33-27 54-14 21-32 59-40 83-7 25-19 52-27 60-12 14-31 54-105 226-9 22-33 74-53 115s-40 85-43 97-17 37-30 57c-13 19-31 55-39 79-8 25-26 61-40 81-13 20-28 50-31 67-4 17-18 47-31 66-13 20-29 54-35 77-6 22-23 65-39 96l-27 55 1473 4450c811 2448 1598 4825 1750 5283 195 592 278 831 287 826 7-4 346-223 753-486zm2909-1881c688-445 1251-810 1253-812 1-1-1336-2729-2972-6061l-2975-6059h-133-132l-18 50c-10 27-26 61-37 76-10 14-26 46-34 71-9 25-27 62-41 82-13 20-28 50-31 67-4 17-18 47-31 66-13 20-29 54-35 77-6 22-27 73-48 111-21 39-41 82-44 96-4 14-18 42-31 62-14 20-30 54-36 75-5 22-18 50-28 63-26 33-52 89-52 109 0 10-6 23-14 29-8 7-26 42-41 79-34 87-76 178-125 275-22 42-40 83-40 91 0 7-12 31-27 52-14 21-32 59-40 83-7 25-19 52-27 60-12 14-31 54-105 226-9 22-34 75-56 117-21 43-39 92-39 110 0 26 2352 5888 4651 11590 9 24 19 35 27 31 6-4 574-371 1261-816zm4730-3060c1155-747 2101-1361 2103-1365 1-4-1255-1920-2792-4257l-2793-4250-2388-3c-1909-2-2386 0-2382 10 7 17 5572 11349 5625 11455l42 82 242-157c134-86 1188-768 2343-1515zm6009-3887 3006-1945v-2022-2023h-5626-5626l19 29c327 511 5202 7910 5209 7908 7-1 1365-877 3018-1947zm-17834-3893c0-6-132-339-292-739l-293-727-3 1277c-3 1175-1 1282 14 1334l17 57 279-595c153-327 278-600 278-607zm813-1724 175-373h-350c-284 0-349 2-345 13 3 7 71 177 152 378 81 200 152 375 157 389l10 25 13-30c8-16 92-198 188-402z" transform="matrix(.1 0 0 -.1 0 2304)"/></svg>