<?xml version="1.0" standalone="no"?>
<!DOCTYPE svg PUBLIC "-//W3C//DTD SVG 20010904//EN"
 "http://www.w3.org/TR/2001/REC-SVG-20010904/DTD/svg10.dtd">
<svg version="1.0" xmlns="http://www.w3.org/2000/svg"
 width="1024.000000pt" height="1024.000000pt" viewBox="0 0 1024.000000 1024.000000"
 preserveAspectRatio="xMidYMid meet">
<metadata>
Created by potrace 1.11, written by Peter Selinger 2001-2013
</metadata>
<g transform="translate(0.000000,1024.000000) scale(0.100000,-0.100000)"
fill="#000000" stroke="none">
<path d="M4877 9735 c-1 -1 -65 -5 -142 -9 -77 -3 -156 -8 -175 -10 -19 -3
-62 -7 -95 -11 -33 -3 -71 -8 -85 -10 -14 -2 -43 -7 -65 -10 -89 -13 -115 -17
-235 -41 -285 -57 -640 -165 -855 -260 -22 -10 -45 -19 -51 -20 -26 -5 -367
-177 -474 -238 -108 -63 -276 -170 -406 -261 -35 -24 -59 -35 -61 -28 -2 6
-18 33 -35 60 -118 182 -168 263 -168 273 0 6 -3 10 -7 10 -5 0 -21 22 -36 50
-15 27 -33 53 -40 57 -14 9 -1857 11 -1857 2 0 -3 41 -70 90 -148 50 -78 90
-144 90 -147 0 -3 5 -10 10 -17 6 -7 60 -91 120 -187 61 -96 115 -182 120
-190 5 -8 95 -152 200 -320 104 -168 198 -318 209 -335 82 -127 110 -175 103
-175 -4 0 -2 -4 3 -8 15 -11 55 -70 55 -82 0 -5 4 -10 9 -10 18 0 20 -44 2
-69 -84 -122 -236 -405 -328 -611 -128 -290 -234 -616 -289 -890 -3 -14 -10
-45 -15 -70 -13 -59 -37 -193 -44 -250 -3 -25 -8 -63 -10 -85 -11 -85 -14
-111 -20 -189 -12 -155 -14 -202 -15 -376 0 -207 4 -291 25 -515 8 -77 35
-257 51 -340 2 -11 6 -31 9 -45 3 -14 7 -36 10 -50 3 -14 8 -38 11 -54 2 -16
7 -32 9 -36 2 -4 7 -22 10 -40 24 -136 143 -502 231 -712 177 -422 426 -830
715 -1174 325 -387 739 -744 1140 -983 401 -240 774 -401 1198 -515 122 -33
335 -80 416 -91 22 -3 51 -8 65 -11 14 -2 34 -6 45 -8 11 -2 49 -7 85 -11 36
-4 72 -8 80 -10 16 -3 162 -15 250 -21 65 -4 478 -4 535 0 253 19 389 37 630
82 483 91 1074 321 1485 579 142 89 288 188 372 252 55 41 101 73 102 71 5 -5
108 -166 187 -290 41 -65 90 -143 109 -173 19 -30 64 -102 100 -159 l65 -103
921 -1 922 0 -40 67 c-21 36 -68 111 -103 166 -35 55 -79 124 -97 154 -18 29
-40 64 -48 76 -8 13 -46 74 -85 136 -38 61 -88 140 -110 175 -22 35 -117 186
-211 336 -94 150 -252 401 -351 558 l-179 285 39 65 c98 159 253 484 335 700
67 176 159 477 175 570 3 14 10 43 15 65 6 22 13 54 16 70 2 17 13 82 24 145
24 136 28 166 37 245 3 33 8 74 10 92 24 176 24 691 1 883 -2 19 -7 62 -11 95
-44 415 -172 892 -345 1290 -112 258 -256 523 -403 740 -58 85 -218 301 -263
355 -164 195 -394 431 -559 572 -199 171 -445 349 -667 481 -222 134 -574 298
-808 377 -69 23 -134 46 -145 51 -21 9 -266 76 -304 84 -12 2 -31 7 -41 10
-10 3 -29 8 -42 10 -13 3 -34 7 -48 10 -76 16 -220 42 -286 51 -27 3 -57 8
-66 9 -9 2 -48 7 -85 10 -37 4 -79 8 -93 11 -59 9 -534 26 -543 19z m740
-1604 c336 -64 748 -234 1055 -437 334 -221 648 -528 853 -834 28 -41 53 -76
58 -78 4 -2 7 -8 7 -13 0 -5 15 -32 34 -61 181 -285 360 -770 402 -1093 3 -22
9 -65 14 -95 28 -176 32 -613 6 -757 -2 -10 -7 -40 -10 -68 -15 -105 -18 -123
-42 -230 -14 -60 -27 -119 -30 -130 -3 -11 -6 -26 -6 -33 -2 -17 -19 1 -45 45
-16 28 -127 206 -218 348 -18 28 -65 103 -106 168 -177 282 -280 446 -514 817
-137 217 -265 421 -284 452 -39 63 -213 339 -592 941 -134 213 -269 427 -299
476 -63 101 -240 383 -317 504 -57 90 -62 101 -35 93 9 -3 40 -10 69 -15z
m-1660 -454 c84 -133 161 -255 172 -272 11 -16 56 -88 101 -160 46 -71 146
-230 224 -353 77 -122 146 -231 151 -240 6 -10 84 -135 174 -277 90 -143 202
-321 249 -395 118 -187 143 -226 188 -295 21 -33 44 -68 49 -78 6 -10 57 -92
115 -184 58 -91 128 -202 156 -247 28 -44 99 -157 159 -251 102 -161 214 -339
362 -575 66 -105 228 -361 288 -455 18 -27 132 -210 255 -405 122 -195 246
-391 274 -435 28 -45 56 -90 63 -100 6 -11 28 -47 49 -79 l37 -59 -44 -39
c-70 -62 -216 -170 -326 -241 -89 -58 -340 -197 -355 -197 -5 0 -184 280 -223
348 -5 9 -228 366 -495 792 -267 426 -489 783 -495 793 -10 17 -940 1507
-1001 1602 -17 28 -66 106 -109 175 -43 69 -92 148 -110 175 -17 28 -58 93
-90 145 -33 52 -93 149 -135 215 -42 66 -96 153 -120 193 -25 40 -52 84 -60
97 -29 46 -212 341 -271 435 -32 52 -73 116 -90 142 -18 29 -28 55 -24 65 18
53 538 371 695 426 18 6 1 30 187 -266z m-1826 -1648 c24 -39 65 -103 90 -142
63 -99 170 -270 194 -311 19 -32 321 -511 377 -598 15 -24 32 -52 38 -63 6
-11 27 -46 48 -77 20 -32 80 -127 132 -210 52 -84 113 -181 135 -215 22 -34
55 -86 73 -115 17 -29 68 -109 112 -178 44 -69 85 -134 90 -145 6 -11 23 -39
38 -62 34 -54 181 -286 207 -329 11 -18 63 -101 115 -184 52 -83 104 -166 115
-184 11 -18 106 -169 210 -335 380 -602 505 -804 501 -808 -6 -6 -251 38 -351
64 -102 25 -244 67 -280 82 -11 5 -54 21 -95 36 -41 16 -108 43 -148 62 -39
18 -74 33 -75 33 -14 0 -254 137 -347 198 -127 83 -153 103 -285 211 -94 77
-315 294 -375 370 -19 24 -40 48 -46 55 -24 25 -154 206 -199 276 -103 160
-218 388 -284 562 -35 92 -105 314 -116 366 -2 10 -10 51 -19 92 -8 41 -18 90
-21 108 -3 17 -8 47 -11 65 -3 17 -7 50 -10 72 -3 22 -8 65 -11 95 -4 30 -7
161 -8 290 0 270 6 351 45 565 24 134 28 152 35 175 3 10 7 27 9 37 5 25 57
196 63 206 7 12 8 10 54 -64z"/>
</g>
</svg>
